<?xml version="1.0" encoding="UTF-8" standalone="no"?>
<svg
   xmlns:dc="http://purl.org/dc/elements/1.1/"
   xmlns:cc="http://creativecommons.org/ns#"
   xmlns:rdf="http://www.w3.org/1999/02/22-rdf-syntax-ns#"
   xmlns:svg="http://www.w3.org/2000/svg"
   xmlns="http://www.w3.org/2000/svg"
   version="1.1"
   id="svg2"
   viewBox="0 0 277.64092 165.1776"
   height="46.616791mm"
   width="78.356438mm">
  <defs
     id="defs4">
    <filter
       id="filter4203"
       style="color-interpolation-filters:sRGB">
      <feConvolveMatrix
         id="feConvolveMatrix4205"
         result="convolve"
         preserveAlpha="true"
         targetY="1"
         targetX="1"
         divisor="1"
         bias="1"
         order="3 3"
         kernelMatrix="0 1 0 1 -4 1 0 1 0"
         in="SourceGraphic" />
    </filter>
  </defs>
  <metadata
     id="metadata7">
    <rdf:RDF>
      <cc:Work
         rdf:about="">
        <dc:format>image/svg+xml</dc:format>
        <dc:type
           rdf:resource="http://purl.org/dc/dcmitype/StillImage" />
        <dc:title></dc:title>
      </cc:Work>
    </rdf:RDF>
  </metadata>
  <g
     transform="translate(-161.55771,-311.83919)"
     id="layer1">
    <path
       id="path4211"
       d="m 183.48202,475.70443 -7.41164,0 0.34639,-58.86558 -14.35309,0.0832 0.0832,-7.05173 14.02022,0 0.31773,-21.01443 c 5.79673,-18.62455 28.71158,-11.99029 31.04982,0.42646 l -6.59745,0.0294 c -0.53648,-2.82141 -10.41818,-12.47938 -17.586,-0.19888 l -0.0139,20.35911 23.56483,0.10808 0.005,7.31444 -23.72706,-0.0232 z"
       style="fill:#ffffff;fill-opacity:1;fill-rule:evenodd;stroke:#002a57;stroke-width:1px;stroke-linecap:butt;stroke-linejoin:miter;stroke-opacity:0.78947371" />
    <path
       id="path4213"
       d="m 217.02493,377.95966 7.97627,0.13918 -0.089,84.1863 c 0.0203,5.41624 6.17246,4.97554 8.44039,4.90432 l 12.20544,0.0232 -0.14518,8.08489 -16.53359,-10e-6 c -6.18035,-0.38264 -11.28998,-5.25329 -11.32256,-9.87339 z"
       style="fill:#ffffff;fill-opacity:1;fill-rule:evenodd;stroke:#002a57;stroke-width:1px;stroke-linecap:butt;stroke-linejoin:miter;stroke-opacity:0.78947371" />
    <path
       id="path4282"
       d="m 394.89618,376.43203 -9.17874,0 1.44927,99.03381 7.24638,0 0,-36.71497 6.28019,0 27.05314,36.23188 9.99745,0 -30.77039,-39.61352 25.45638,-25.93948 -10.48054,-0.14748 -20.28985,21.73913 -6.2802,0 z"
       style="fill:#ffffff;fill-opacity:1;fill-rule:evenodd;stroke:#002a57;stroke-width:1px;stroke-linecap:butt;stroke-linejoin:miter;stroke-opacity:0.78947371" />
    <path
       id="path4284"
       d="m 374.09206,463.14961 0.83773,9.14863 c -18.26992,5.08865 -43.90713,6.80995 -47.55827,-26.34831 -1.96927,-26.78077 16.74452,-43.47481 47.87627,-32.7869 l -0.44573,9.45425 c -29.03288,-14.96942 -42.76286,6.45888 -40.43635,24.40922 3.05166,21.3659 21.32086,26.06046 39.72635,16.12311 z"
       style="fill:#ffffff;fill-opacity:1;fill-rule:evenodd;stroke:#002a57;stroke-width:0.97976494px;stroke-linecap:butt;stroke-linejoin:miter;stroke-opacity:0.78947371" />
    <path
       id="path4288"
       d="m 286.83191,409.24115 c -17.34331,-8e-4 -31.40305,14.70779 -31.40235,32.85156 3.3e-4,18.14301 14.05977,32.85041 31.40235,32.84961 17.34181,-3.3e-4 31.40006,-14.7074 31.40039,-32.84961 7e-4,-18.14297 -14.05785,-32.85123 -31.40039,-32.85156 z m 0.084,9.17188 c 13.07787,-4.9e-4 23.67979,10.81743 23.67969,24.16211 1e-4,13.34467 -10.60183,24.16259 -23.67969,24.1621 -13.0771,-6.2e-4 -23.67783,-10.81821 -23.67773,-24.1621 -10e-5,-13.3439 10.60063,-24.16149 23.67773,-24.16211 z"
       style="fill:#ffffff;fill-opacity:1;stroke:#002a57;stroke-width:0.98533857;stroke-opacity:0.78947371" />
    <path
       id="path4292"
       transform="translate(161.55771,311.83917)"
       d="M 170.48242 0.5 C 166.60918 0.509 162.73652 1.5936726 158.86328 2.8515625 C 153.71561 6.1002321 149.31788 11.223731 145.71875 18.34375 L 165.43555 40.410156 C 178.78243 58.162744 190.25919 53.463688 201.11719 41.349609 C 206.08928 44.562869 207.68537 55.652401 216.14062 50.738281 L 220.36523 46.513672 L 202.99414 30.082031 C 203.4058 24.789122 209.94425 21.763486 216.60938 20.222656 C 208.72006 18.073167 208.37483 13.433614 198.76953 8.484375 C 195.63964 8.171385 190.7881 10.207511 188.91016 13.650391 L 179.52148 2.8515625 C 176.50896 1.1355027 173.49494 0.49262 170.48242 0.5 z M 111.96289 0.6640625 C 108.95037 0.6570625 105.93635 1.2995652 102.92383 3.015625 L 93.535156 13.814453 C 91.657216 10.371574 86.805671 8.3374007 83.675781 8.6503906 C 74.070482 13.59963 73.725257 18.237229 65.835938 20.386719 C 72.501067 21.927549 79.039512 24.953184 79.451172 30.246094 L 62.080078 46.677734 L 66.304688 50.902344 C 74.759946 55.816463 76.356036 44.726931 81.328125 41.513672 C 92.186124 53.62775 103.66288 58.326807 117.00977 40.574219 L 136.72656 18.509766 C 134.60379 12.592136 130.3498 7.3849145 123.58203 3.015625 C 119.70879 1.7577451 115.83613 0.6735525 111.96289 0.6640625 z M 156.80078 10.583984 A 2.8375594 2.8375594 0 0 1 159.63867 13.419922 A 2.8375594 2.8375594 0 0 1 156.80078 16.257812 A 2.8375594 2.8375594 0 0 1 153.96484 13.419922 A 2.8375594 2.8375594 0 0 1 156.80078 10.583984 z M 124.95703 11.109375 A 2.8375591 2.8375591 0 0 1 127.79492 13.945312 A 2.8375591 2.8375591 0 0 1 124.95703 16.783203 A 2.8375591 2.8375591 0 0 1 122.12109 13.945312 A 2.8375591 2.8375591 0 0 1 124.95703 11.109375 z "
       style="fill:#ffffff;fill-opacity:1;fill-rule:evenodd;stroke:#002a57;stroke-width:1px;stroke-linecap:butt;stroke-linejoin:miter;stroke-opacity:0.78947371" />
  </g>
</svg>
